# xmcd
#
# Track frame offsets:
#	150
#	13292
#	26042
#	37717
#	49155
#	62885
#	77445
#	90070
#	102300
#	112285
#	120547
#	131780
#	140150
#	147057
#	159145
#	167820
#	175825
#	186907
#	197425
#	210255
#	220717
#	237855
#	248375
#	260600
#	272225
#	282450
#	291830
#	300855
#	308587
#	320030
#
# Disc length: 4379 seconds
#
# Revision: 1
# Processed by: cddbd v1.5.2PL0 Copyright (c) Steve Scherf et al.
# Submitted via: audiograbber 1.83.01
#
DISCID=a411191e
DTITLE=Johnny Cash - The Man In Black 1954-1958 Disc 2
DYEAR=1900
DGENRE=
TTITLE0=Don´t Make Me Go
TTITLE1=Next In Line
TTITLE2=Don´t Make Me Go
TTITLE3=Don´t Make Me Go
TTITLE4=Home Of The Blues
TTITLE5=Give My Love To Rose
TTITLE6=Give My Love To Rose
TTITLE7=Home Of The Blues
TTITLE8=Rock Island Line
TTITLE9=Wreck Of The Old 97
TTITLE10=Belshazzar
TTITLE11=Country Boy
TTITLE12=Leave That Junk Alone
TTITLE13=Doin My Time
TTITLE14=Country Boy
TTITLE15=If The Good Lords Wiling
TTITLE16=I Heard That Lonesome Whistle Blow
TTITLE17=I Was There When It Happened
TTITLE18=Remember Me
TTITLE19=I Was There When It Happened.
TTITLE20=Big River
TTITLE21=Ballad Of A Teenage Queen
TTITLE22=Goodnight Irene
TTITLE23=Big River
TTITLE24=Ballad Of A Teenage Queen.
TTITLE25=Come In Stranger
TTITLE26=Guess Things Happen That Way
TTITLE27=Come In Stranger
TTITLE28=Oh Lonesome Me
TTITLE29=Guess Things Happen That Way
EXTD=
EXTT0=
EXTT1=
EXTT2=
EXTT3=
EXTT4=
EXTT5=
EXTT6=
EXTT7=
EXTT8=
EXTT9=
EXTT10=
EXTT11=
EXTT12=
EXTT13=
EXTT14=
EXTT15=
EXTT16=
EXTT17=
EXTT18=
EXTT19=
EXTT20=
EXTT21=
EXTT22=
EXTT23=
EXTT24=
EXTT25=
EXTT26=
EXTT27=
EXTT28=
EXTT29=
PLAYORDER=
